<svg xmlns="http://www.w3.org/2000/svg" xmlns:xlink="http://www.w3.org/1999/xlink" fill="none" version="1.1" width="33.33333206176758" height="33.33333206176758" viewBox="0 0 33.33333206176758 33.33333206176758"><g><path d="M25,3.33333L31.6667,3.33333C32.5871,3.33333,33.3333,4.07953,33.3333,5L33.3333,31.6667C33.3333,32.5871,32.5871,33.3333,31.6667,33.3333L1.66667,33.3333C0.746192,33.3333,0,32.5871,0,31.6667L0,5C0,4.07953,0.746192,3.33333,1.66667,3.33333L8.33333,3.33333L8.33333,0L11.6667,0L11.6667,3.33333L21.6667,3.33333L21.6667,0L25,0L25,3.33333ZM3.33333,13.3333L3.33333,30L30,30L30,13.3333L3.33333,13.3333ZM6.66667,16.6667L10,16.6667L10,20L6.66667,20L6.66667,16.6667ZM15,16.6667L18.3333,16.6667L18.3333,20L15,20L15,16.6667ZM23.3333,16.6667L26.6667,16.6667L26.6667,20L23.3333,20L23.3333,16.6667Z" fill="#D8D8D8" fill-opacity="1"/></g></svg>