<svg xmlns="http://www.w3.org/2000/svg" xmlns:xlink="http://www.w3.org/1999/xlink" fill="none" version="1.1" width="43" height="40" viewBox="0 0 43 40"><g><path d="M21.5,18C27.4371,18,32.25,22.4772,32.25,28L32.25,40L10.75,40L10.75,28C10.75,22.4772,15.5629,18,21.5,18ZM7.0692,24.012C6.72704,25.0856,6.52493,26.1935,6.4672,27.312L6.45,28L6.45,40L2.563e-7,40L2.563e-7,31C-0.000875521,27.4283,2.8891,24.4288,6.70585,24.04L7.0692,24.012L7.0692,24.012ZM35.9308,24.012C39.9029,24.2378,43,27.2993,43,31L43,40L36.55,40L36.55,28C36.55,26.614,36.335,25.276,35.9308,24.012ZM7.525,12C10.4935,12,12.9,14.2386,12.9,17C12.9,19.7614,10.4935,22,7.525,22C4.55647,22,2.15,19.7614,2.15,17C2.15,14.2386,4.55647,12,7.525,12ZM35.475,12C38.4435,12,40.85,14.2386,40.85,17C40.85,19.7614,38.4435,22,35.475,22C32.5065,22,30.1,19.7614,30.1,17C30.1,14.2386,32.5065,12,35.475,12ZM21.5,0C26.2497,0,30.1,3.58172,30.1,8C30.1,12.4183,26.2497,16,21.5,16C16.7503,16,12.9,12.4183,12.9,8C12.9,3.58172,16.7503,0,21.5,0Z" fill="#D8D8D8" fill-opacity="1"/></g></svg>