<svg xmlns="http://www.w3.org/2000/svg" xmlns:xlink="http://www.w3.org/1999/xlink" fill="none" version="1.1" width="30" height="40" viewBox="0 0 30 40"><g><path d="M15.0008,0C19.6318,0,23.3859,4.07014,23.3859,9.09091L23.3859,16.3636C23.3859,21.3844,19.6318,25.4545,15.0008,25.4545C10.3699,25.4545,6.6158,21.3844,6.6158,16.3636L6.6158,9.09091C6.6158,4.07014,10.3699,0,15.0008,0ZM0,18.1818L3.37917,18.1818C4.2191,24.4387,9.16726,29.0792,14.9992,29.0792C20.8311,29.0792,25.7792,24.4387,26.6192,18.1818L30,18.1818C29.2147,25.7786,23.6847,31.7749,16.6778,32.6273L16.6778,40L13.3238,40L13.3238,32.6273C6.31633,31.7757,0.78546,25.7792,0,18.1818Z" fill="#D8D8D8" fill-opacity="1"/></g></svg>