<svg xmlns="http://www.w3.org/2000/svg" xmlns:xlink="http://www.w3.org/1999/xlink" fill="none" version="1.1" width="18" height="18" viewBox="0 0 18 18"><g><path d="M7.59895,10.6606L7.59895,17.221L0,17.221C0,13.5978,3.40216,10.6606,7.59895,10.6606ZM7.59895,9.84055C4.45013,9.84055,1.89974,7.63873,1.89974,4.92027C1.89974,2.20182,4.45013,0,7.59895,0C10.7478,0,13.2982,2.20182,13.2982,4.92027C13.2982,7.63873,10.7478,9.84055,7.59895,9.84055ZM16.5714,15.6071L18,16.8405L16.6569,18L15.2283,16.7667C12.9481,17.9273,10.0264,16.7698,9.55878,14.5205C9.09117,12.2712,11.3643,10.3088,13.9697,10.7125C16.5751,11.1162,17.9158,13.6386,16.5714,15.6071ZM13.2982,15.5809C14.3474,15.5809,15.1979,14.8466,15.1979,13.9408C15.1979,13.035,14.3474,12.3007,13.2982,12.3007C12.249,12.3007,11.3984,13.035,11.3984,13.9408C11.3984,14.8466,12.249,15.5809,13.2982,15.5809Z" fill="#D8D8D8" fill-opacity="1"/></g></svg>