<svg xmlns="http://www.w3.org/2000/svg" xmlns:xlink="http://www.w3.org/1999/xlink" fill="none" version="1.1" width="40" height="40" viewBox="0 0 40 40"><g><path d="M20,0C31.04,0,40,8.96,40,20C40,31.04,31.04,40,20,40C8.96,40,0,31.04,0,20C0,8.96,8.96,0,20,0ZM8.046,26.832C10.982,31.212,15.39,34,20.32,34C25.248,34,29.658,31.214,32.592,26.832C29.2635,23.7212,24.8759,21.9936,20.32,22C15.7634,21.9931,11.375,23.7207,8.046,26.832ZM20,18C23.3137,18,26,15.3137,26,12C26,8.68629,23.3137,6,20,6C16.6863,6,14,8.68629,14,12C14,15.3137,16.6863,18,20,18Z" fill="#D8D8D8" fill-opacity="1"/></g></svg>