<svg xmlns="http://www.w3.org/2000/svg" xmlns:xlink="http://www.w3.org/1999/xlink" fill="none" version="1.1" width="40" height="30" viewBox="0 0 40 30"><g><path d="M27.2727,0C28.2769,0,29.0909,0.839466,29.0909,1.875L29.0909,9.75L38.5691,2.90625C38.8469,2.70542,39.21,2.68084,39.5109,2.84249C39.8118,3.00414,40.0004,3.32512,40,3.675L40,26.325C40.0004,26.6749,39.8118,26.9959,39.5109,27.1575C39.21,27.3192,38.8469,27.2946,38.5691,27.0937L29.0909,20.25L29.0909,28.125C29.0909,29.1605,28.2769,30,27.2727,30L1.81818,30C0.814028,30,0,29.1605,0,28.125L0,1.875C0,0.839466,0.814028,0,1.81818,0L27.2727,0ZM11.6364,9.05438C11.2907,9.0543,10.9928,9.30513,10.9236,9.65438L10.9091,9.8025L10.9091,20.1937C10.909,20.7188,11.4186,21.0814,11.8945,20.895L12.0273,20.8275L19.9455,15.63C20.3405,15.3693,20.3966,14.7968,20.06,14.46L19.9455,14.3662L12.0273,9.16875C11.91,9.09376,11.7744,9.05474,11.6364,9.05438L11.6364,9.05438Z" fill="#D8D8D8" fill-opacity="1"/></g></svg>